<?xml version="1.0" standalone="no"?>
<!DOCTYPE svg PUBLIC "-//W3C//DTD SVG 20010904//EN"
 "http://www.w3.org/TR/2001/REC-SVG-20010904/DTD/svg10.dtd">
<svg version="1.0" xmlns="http://www.w3.org/2000/svg"
 width="1200.000000pt" height="1200.000000pt" viewBox="0 0 1200.000000 1200.000000"
 preserveAspectRatio="xMidYMid meet">

<g transform="translate(0.000000,1200.000000) scale(0.100000,-0.100000)"
fill="#000000" stroke="none">
<path d="M0 6000 l0 -6000 6000 0 6000 0 0 6000 0 6000 -6000 0 -6000 0 0
-6000z m2690 1484 c83 -17 167 -52 217 -90 l32 -24 46 34 c82 63 233 96 439
96 169 0 166 3 166 -139 0 -176 -40 -287 -141 -396 l-59 -63 21 -47 c20 -45
21 -91 4 -137 -4 -9 14 -28 49 -52 95 -65 220 -206 335 -378 55 -82 60 -101
34 -130 -27 -30 -60 -23 -90 21 -16 21 -57 81 -93 132 -75 107 -193 230 -266
277 l-50 33 -397 0 -397 0 -57 -39 c-32 -22 -96 -79 -143 -128 -183 -190 -308
-432 -372 -715 -33 -147 -33 -412 -1 -541 76 -301 251 -501 498 -570 76 -21
98 -22 460 -23 254 0 398 4 435 12 87 18 166 51 236 98 84 57 98 61 123 36 43
-43 20 -80 -91 -147 -82 -50 -216 -93 -331 -105 -153 -17 -723 -6 -817 16
-478 108 -719 555 -629 1160 61 409 264 771 553 989 l50 37 0 79 c1 61 5 83
18 97 17 16 14 20 -41 78 -105 109 -150 234 -151 416 0 110 8 124 75 132 66 8
255 -3 335 -19z m3580 -1014 l0 -60 -110 0 -110 0 0 -415 0 -415 110 0 110 0
0 -60 0 -60 -295 0 -295 0 0 60 0 60 110 0 110 0 0 415 0 415 -110 0 -110 0 0
60 0 60 295 0 295 0 0 -60z m765 -214 c60 -28 77 -46 107 -111 22 -48 23 -61
26 -367 l3 -318 -65 0 -65 0 -3 293 c-3 264 -5 296 -22 331 -26 52 -68 76
-134 76 -79 0 -126 -31 -168 -110 -17 -31 -19 -65 -22 -312 l-3 -278 -65 0
-64 0 0 400 0 400 60 0 60 0 1 -32 c1 -33 16 -93 18 -72 1 6 20 30 43 53 73
72 198 92 293 47z m953 -11 l62 -28 0 -63 c0 -66 -13 -82 -39 -50 -26 31 -114
59 -186 59 -172 0 -257 -101 -257 -303 0 -187 69 -282 223 -305 58 -9 160 16
210 50 19 14 38 25 42 25 4 0 7 -29 7 -64 l0 -63 -61 -28 c-45 -20 -84 -29
-143 -32 -195 -13 -336 74 -399 244 -17 47 -21 81 -21 173 0 92 4 126 21 173
44 118 129 200 243 232 85 23 219 15 298 -20z m945 7 l47 -21 0 -65 c0 -36 -2
-66 -4 -66 -2 0 -28 12 -56 26 -72 36 -178 37 -247 3 -58 -29 -106 -96 -122
-169 -6 -28 -11 -152 -11 -275 l0 -225 -65 0 -65 0 0 400 0 400 60 0 60 0 0
-32 c0 -18 3 -50 6 -71 l7 -38 17 28 c35 57 93 102 160 124 43 14 161 4 213
-19z m763 -4 c119 -62 184 -192 184 -370 l0 -48 -285 0 -285 0 0 -38 c0 -207
203 -294 454 -193 43 17 79 31 82 31 2 0 4 -29 4 -64 l0 -63 -42 -16 c-107
-38 -127 -42 -243 -42 -111 0 -125 2 -183 29 -78 36 -151 113 -184 194 -20 50
-23 74 -23 192 0 173 18 225 110 317 50 50 73 65 126 82 91 30 214 25 285 -11z
m821 17 c99 -29 175 -110 209 -220 8 -27 18 -91 21 -141 14 -214 -57 -375
-190 -435 -43 -20 -68 -24 -152 -24 -84 0 -109 4 -152 24 -123 55 -193 195
-193 389 0 211 78 353 222 403 65 22 167 24 235 4z m-5829 -11 l22 -15 0 -555
c0 -364 -4 -562 -10 -575 -10 -17 -22 -19 -148 -19 -94 0 -142 4 -150 12 -9 9
-12 150 -12 574 0 498 2 564 16 578 22 23 249 23 282 0z m-1714 -180 c11 -10
16 -34 16 -70 l0 -54 124 0 c100 0 128 -3 140 -16 22 -21 20 -50 -4 -74 -18
-18 -33 -20 -140 -20 l-120 0 0 -130 0 -130 43 0 c81 -1 169 -57 210 -135 29
-56 29 -155 0 -211 -43 -81 -129 -134 -217 -134 l-36 0 0 -54 c0 -45 -4 -58
-22 -70 -30 -21 -44 -20 -68 4 -15 15 -20 33 -20 70 l0 50 -118 0 c-131 0
-154 8 -154 55 0 47 23 55 154 55 l118 0 0 129 0 128 -54 6 c-135 14 -216 104
-216 239 0 78 23 131 75 177 50 43 93 61 150 61 l45 0 0 48 c0 27 7 57 16 70
18 26 56 29 78 6z m1290 -40 c14 -14 16 -69 16 -460 0 -288 -4 -452 -10 -465
-10 -17 -22 -19 -148 -19 -94 0 -142 4 -150 12 -17 17 -17 919 0 936 8 8 55
12 144 12 107 0 136 -3 148 -16z m-436 -210 l22 -15 0 -340 c0 -216 -4 -347
-10 -360 -10 -17 -22 -19 -148 -19 -94 0 -142 4 -150 12 -9 9 -12 102 -12 357
0 306 2 346 17 363 14 16 33 18 137 18 94 0 127 -4 144 -16z m996 -860 c20
-20 20 -58 0 -78 -14 -14 -89 -16 -712 -14 l-696 3 -15 26 c-13 24 -13 29 2
53 l17 26 695 0 c617 0 695 -2 709 -16z"/>
<path d="M2397 7393 c-11 -10 -8 -97 4 -155 24 -112 89 -212 170 -264 l39 -24
325 0 c325 0 325 0 363 24 109 68 182 210 182 353 l0 63 -87 0 c-230 -1 -381
-57 -399 -149 -15 -75 -94 -77 -114 -2 -14 54 -65 96 -148 121 -98 29 -318 51
-335 33z"/>
<path d="M2578 6829 c-24 -13 -23 -61 0 -82 17 -15 56 -17 360 -17 329 0 343
1 362 20 24 24 25 38 4 68 l-15 22 -347 0 c-217 0 -354 -4 -364 -11z"/>
<path d="M9477 6156 c-83 -23 -140 -91 -162 -193 l-7 -33 216 0 216 0 0 28 c0
45 -20 105 -47 141 -43 56 -132 80 -216 57z"/>
<path d="M10357 6159 c-55 -13 -81 -34 -111 -88 -54 -99 -58 -310 -7 -409 44
-86 119 -122 211 -101 117 26 179 184 152 381 -24 168 -114 248 -245 217z"/>
<path d="M4500 5680 l0 -480 50 0 50 0 0 480 0 480 -50 0 -50 0 0 -480z"/>
<path d="M2782 5823 c-40 -19 -65 -64 -65 -115 0 -66 48 -115 123 -125 l40 -6
0 132 0 131 -32 0 c-18 0 -48 -8 -66 -17z"/>
<path d="M2990 5340 l0 -130 30 0 c45 0 93 23 114 54 59 90 -1 206 -106 206
l-38 0 0 -130z"/>
<path d="M4070 5570 l0 -370 50 0 50 0 0 370 0 370 -50 0 -50 0 0 -370z"/>
<path d="M3640 5465 l0 -265 50 0 50 0 0 265 0 265 -50 0 -50 0 0 -265z"/>
</g>
</svg>
